<svg xmlns="http://www.w3.org/2000/svg" viewBox="0 0 1290 610" width="1290" height="610"  role="img" aria-hidden="true" focusable="false"><defs><linearGradient id="g" gradientTransform="rotate(90 .5 .5)"><stop offset="0" stop-color="#1F5B5E"/><stop offset="1" stop-color="#14201F"/></linearGradient></defs><rect width="1290" height="610" fill="url(#g)"/><circle cx="960" cy="330" r="170" fill="#C9A15B" opacity=".35"/><circle cx="960" cy="330" r="110" fill="#E3C98F" opacity=".45"/><path d="M0 360 C 232.2 320, 412.8 400, 645 360 S 1057.8 320, 1290 360 L 1290 610 L 0 610 Z" fill="#2E7C80" opacity="0.55"/><path d="M0 430 C 232.2 396, 412.8 464, 645 430 S 1057.8 396, 1290 430 L 1290 610 L 0 610 Z" fill="#1F5B5E" opacity="0.7"/><path d="M0 500 C 232.2 470, 412.8 530, 645 500 S 1057.8 470, 1290 500 L 1290 610 L 0 610 Z" fill="#14201F" opacity="0.8"/><path d="M0 565 C 232.2 545, 412.8 585, 645 565 S 1057.8 545, 1290 565 L 1290 610 L 0 610 Z" fill="#1F5B5E" opacity="0.9"/></svg>
